HIERARCHY
ROOT Hips
{
	OFFSET 173.408295 91.952423 -518.280273
	CHANNELS 6 Xposition Yposition Zposition Zrotation Yrotation Xrotation 
	JOINT LeftUpLeg
	{
		OFFSET 0.103459 1.857827 10.548504
		CHANNELS 3 Zrotation Yrotation Xrotation
		JOINT LeftLeg
		{
			OFFSET 43.500008 0.000000 0.000004
			CHANNELS 3 Zrotation Yrotation Xrotation
			JOINT LeftFoot
			{
				OFFSET 42.372192 0.000011 0.000000
				CHANNELS 3 Zrotation Yrotation Xrotation
				JOINT LeftToe
				{
					OFFSET 17.299973 -0.000013 -0.000010
					CHANNELS 3 Zrotation Yrotation Xrotation
					End Site
					{
						OFFSET 0.000000 0.000000 0.000000
					}
				}
			}
		}
	}
	JOINT RightUpLeg
	{
		OFFSET 0.103454 1.857830 -10.548500
		CHANNELS 3 Zrotation Yrotation Xrotation
		JOINT RightLeg
		{
			OFFSET 43.500038 -0.000038 0.000004
			CHANNELS 3 Zrotation Yrotation Xrotation
			JOINT RightFoot
			{
				OFFSET 42.372253 0.000019 0.000024
				CHANNELS 3 Zrotation Yrotation Xrotation
				JOINT RightToe
				{
					OFFSET 17.299988 -0.000007 0.000004
					CHANNELS 3 Zrotation Yrotation Xrotation
					End Site
					{
						OFFSET 0.000000 0.000000 0.000000
					}
				}
			}
		}
	}
	JOINT Spine
	{
		OFFSET 6.901963 -2.603744 0.000004
		CHANNELS 3 Zrotation Yrotation Xrotation
		JOINT Spine1
		{
			OFFSET 12.588104 0.000008 -0.000010
			CHANNELS 3 Zrotation Yrotation Xrotation
			JOINT Spine2
			{
				OFFSET 12.343202 -0.000005 0.000010
				CHANNELS 3 Zrotation Yrotation Xrotation
				JOINT Neck
				{
					OFFSET 25.832897 0.000000 0.000001
					CHANNELS 3 Zrotation Yrotation Xrotation
					JOINT Head
					{
						OFFSET 11.766611 -0.000006 -0.000000
						CHANNELS 3 Zrotation Yrotation Xrotation
						End Site
						{
							OFFSET 0.000000 0.000000 0.000000
						}
					}
				}
				JOINT LeftShoulder
				{
					OFFSET 19.745899 -1.480366 6.000108
					CHANNELS 3 Zrotation Yrotation Xrotation
					JOINT LeftArm
					{
						OFFSET 11.284111 -0.000018 -0.000015
						CHANNELS 3 Zrotation Yrotation Xrotation
						JOINT LeftForeArm
						{
							OFFSET 33.000050 -0.000005 0.000028
							CHANNELS 3 Zrotation Yrotation Xrotation
							JOINT LeftHand
							{
								OFFSET 25.200012 0.000000 0.000002
								CHANNELS 3 Zrotation Yrotation Xrotation
								End Site
								{
									OFFSET 0.000000 0.000000 0.000000
								}
							}
						}
					}
				}
				JOINT RightShoulder
				{
					OFFSET 19.746111 -1.480335 -6.000074
					CHANNELS 3 Zrotation Yrotation Xrotation
					JOINT RightArm
					{
						OFFSET 11.284151 0.000036 0.000001
						CHANNELS 3 Zrotation Yrotation Xrotation
						JOINT RightForeArm
						{
							OFFSET 33.000092 -0.000035 0.000022
							CHANNELS 3 Zrotation Yrotation Xrotation
							JOINT RightHand
							{
								OFFSET 25.199768 0.000178 0.000417
								CHANNELS 3 Zrotation Yrotation Xrotation
								End Site
								{
									OFFSET 0.000000 0.000000 0.000000
								}
							}
						}
					}
				}
			}
		}
	}
}
MOTION
Frames: 17
Frame Time: 0.033333
173.408295 91.952423 -518.280273 89.620408 0.652150 92.222382 175.529305 -3.825606 173.027898 -16.027724 0.907516 2.303384 76.117670 -2.318585 -2.386197 21.454555 0.003095 0.000000 177.801203 2.282903 -176.783696 -14.571799 4.189206 6.242791 77.874716 -3.774645 2.921458 21.454560 -0.003101 -0.000015 5.477288 0.241115 0.396648 0.943347 0.474440 0.795290 0.625275 0.479302 0.792255 0.966223 6.327928 -2.427240 14.907216 -14.144141 -0.363863 -64.744039 -84.244694 -117.560273 -11.211029 3.037350 -15.035068 -8.166726 -10.412443 0.705441 12.859502 1.553254 18.358731 -82.670322 80.131137 99.953589 -3.698083 -8.076120 16.001649 -15.291380 15.341529 -1.080976 12.298188 10.353672 -7.473871 
173.419205 91.952507 -518.296814 89.627122 0.652145 92.245919 175.514524 -3.809597 173.039154 -16.025599 0.907515 2.309624 76.108504 -2.318579 -2.375044 21.454550 0.003080 -0.000001 177.790480 2.294005 -176.772713 -14.577219 4.181992 6.249023 77.874709 -3.774639 2.935679 21.454558 -0.003111 -0.000016 5.483439 0.241118 0.396645 0.955701 0.479167 0.795298 0.637622 0.484056 0.792258 0.966232 6.328626 -2.427244 14.872445 -14.144148 -0.360162 -64.767911 -84.235097 -117.537174 -11.196231 3.008290 -14.961147 -8.168670 -10.412442 0.705449 12.836450 1.561534 18.432874 -82.663307 80.112204 99.962421 -3.628556 -8.074670 15.968004 -15.267870 15.341529 -1.080978 12.263732 10.330902 -7.610445 
173.436996 91.953293 -518.325073 89.639102 0.645258 92.286859 175.487354 -3.781093 173.058115 -16.014270 0.907509 2.320428 76.088553 -2.318591 -2.357747 21.454553 0.003096 -0.000000 177.766574 2.315092 -176.748179 -14.585862 4.172627 6.256774 77.874723 -3.774633 2.954751 21.454555 -0.003107 -0.000018 5.492920 0.246328 0.396650 0.974693 0.489511 0.795292 0.656620 0.494427 0.792255 0.971382 6.312130 -2.427249 14.782444 -14.144151 -0.352229 -64.869182 -84.223042 -117.437193 -11.153772 2.927034 -14.808076 -8.178589 -10.412440 0.705453 12.805461 1.581273 18.555023 -82.619396 80.077063 100.009795 -3.505154 -8.040449 15.907746 -15.226160 15.340822 -1.080973 12.210749 10.263810 -7.805514 
173.452805 91.954536 -518.354004 89.653323 0.634049 92.335688 175.458353 -3.751610 173.087471 -15.995224 0.907506 2.329874 76.062981 -2.318583 -2.341208 21.454551 0.003085 -0.000001 177.738488 2.340188 -176.710723 -14.596446 4.167201 6.261426 77.874716 -3.774637 2.967331 21.454560 -0.003113 -0.000017 5.501727 0.251891 0.396654 0.992354 0.500570 0.795292 0.674280 0.505511 0.792254 0.979462 6.286225 -2.423503 14.698909 -14.143165 -0.342941 -64.993423 -84.193392 -117.315794 -11.106748 2.822022 -14.664257 -8.216682 -10.414490 0.705454 12.778589 1.553161 18.647598 -82.549659 80.030617 100.084128 -3.377119 -7.977191 15.856028 -15.210020 15.365479 -1.080973 12.171469 10.173300 -7.933570 
173.464493 91.956207 -518.383423 89.665808 0.614983 92.395466 175.418273 -3.728198 173.130160 -15.978422 0.900453 2.339023 76.035606 -2.318588 -2.324091 21.454555 0.003105 -0.000001 177.704870 2.361210 -176.664291 -14.605004 4.161299 6.267933 77.874716 -3.776911 2.975993 21.454557 -0.003108 -0.000016 5.505332 0.257545 0.393450 1.003447 0.511885 0.788950 0.685374 0.516774 0.785865 1.011047 6.288909 -2.411169 14.623695 -14.159910 -0.321620 -64.926030 -84.141176 -117.388235 -11.062601 2.741231 -14.552449 -8.276435 -10.442261 0.705449 12.754773 1.478519 18.684515 -82.461448 79.971161 100.178446 -3.255585 -7.888596 15.835483 -15.217081 15.396230 -1.080977 12.147110 10.135973 -7.990865 
173.473801 91.958588 -518.411499 89.676784 0.589941 92.454615 175.373904 -3.709894 173.168805 -15.960533 0.889894 2.350753 76.007233 -2.322357 -2.306199 21.454555 0.003092 0.000000 177.670132 2.378293 -176.627927 -14.605127 4.156795 6.280933 77.874709 -3.784483 2.981817 21.454557 -0.003113 -0.000019 5.507178 0.262303 0.387232 1.007392 0.521423 0.776569 0.689316 0.526234 0.773406 1.056855 6.333539 -2.389672 14.579951 -14.198076 -0.287591 -64.761204 -84.053503 -117.561353 -11.042039 2.699367 -14.475432 -8.343253 -10.505992 0.705437 12.739890 1.386814 18.691269 -82.368960 79.913883 100.276637 -3.154353 -7.789476 15.827546 -15.223810 15.433909 -1.080984 12.137269 10.168471 -8.021531 
173.483002 91.961731 -518.435974 89.687180 0.564147 92.502796 175.335560 -3.692796 173.190716 -15.937818 0.881562 2.365582 75.978806 -2.328569 -2.289044 21.454553 0.003102 0.000001 177.640502 2.393800 -176.606945 -14.595453 4.154351 6.297472 77.874709 -3.796227 2.981238 21.454558 -0.003120 -0.000018 5.508910 0.264623 0.379053 1.005696 0.528979 0.760248 0.687616 0.533710 0.757037 1.104269 6.405854 -2.374422 14.583436 -14.249908 -0.260238 -64.697710 -83.965838 -117.633397 -11.017310 2.658947 -14.416111 -8.406839 -10.581160 0.705453 12.719681 1.300019 18.672057 -82.276063 79.875388 100.373516 -3.071301 -7.687663 15.814615 -15.228781 15.474398 -1.080981 12.146910 10.232400 -8.019305 
173.493698 91.964684 -518.457214 89.698675 0.542223 92.536584 175.305903 -3.672302 173.199199 -15.914990 0.878937 2.379085 75.953787 -2.334782 -2.275041 21.454551 0.003107 0.000002 177.613168 2.410202 -176.594309 -14.590153 4.151079 6.310782 77.874716 -3.807295 2.974586 21.454558 -0.003113 -0.000017 5.510457 0.266797 0.370077 1.000608 0.531747 0.742304 0.682521 0.536445 0.739051 1.152016 6.474492 -2.374578 14.619006 -14.279265 -0.254509 -64.720291 -83.921073 -117.615161 -10.949780 2.578574 -14.329464 -8.441865 -10.617952 0.705444 12.674471 1.190018 18.620783 -82.213116 79.862356 100.437932 -2.998354 -7.588854 15.794099 -15.247250 15.510120 -1.080972 12.154018 10.281002 -8.013116 
173.504593 91.966331 -518.473816 89.710683 0.530676 92.552861 175.289319 -3.650597 173.201153 -15.899142 0.876501 2.385743 75.936978 -2.337456 -2.266171 21.454553 0.003091 -0.000000 177.590027 2.426003 -176.585266 -14.599324 4.144463 6.315939 77.880658 -3.813533 2.964525 21.454557 -0.003112 -0.000019 5.511780 0.268791 0.361365 0.994813 0.532461 0.724855 0.676721 0.537798 0.721611 1.206774 6.513108 -2.390778 14.659778 -14.266521 -0.273722 -64.729512 -83.915527 -117.606364 -10.848251 2.492219 -14.246234 -8.442054 -10.636570 0.705452 12.609709 1.019900 18.589104 -82.156268 79.857103 100.495531 -2.955418 -7.512704 15.777935 -15.293378 15.534941 -1.080974 12.148598 10.307497 -8.030832 
173.513901 91.966393 -518.485229 89.721645 0.530437 92.544822 175.287584 -3.632101 173.194937 -15.891883 0.874088 2.383114 75.930462 -2.335131 -2.263840 21.454551 0.003093 -0.000001 177.571600 2.439697 -176.583148 -14.622383 4.137075 6.310585 77.893677 -3.811892 2.950782 21.454560 -0.003108 -0.000017 5.512817 0.270649 0.357946 0.990109 0.532377 0.714265 0.672023 0.538012 0.711020 1.250219 6.522863 -2.414865 14.705032 -14.219292 -0.307751 -64.696324 -83.919331 -117.638916 -10.747481 2.427444 -14.216873 -8.419129 -10.641941 0.705449 12.551931 0.776641 18.552904 -82.100595 79.854679 100.551736 -2.933790 -7.471507 15.750215 -15.352129 15.543740 -1.080974 12.114927 10.315602 -8.081492 
173.519501 91.965332 -518.489807 89.728653 0.545412 92.514345 175.307023 -3.623203 173.182547 -15.889899 0.871842 2.371892 75.933276 -2.327928 -2.266740 21.454551 0.003092 -0.000001 177.569769 2.447994 -176.591768 -14.645022 4.132976 6.298246 77.907603 -3.806935 2.934258 21.454560 -0.003106 -0.000016 5.513520 0.272343 0.356309 0.988613 0.531710 0.714604 0.670519 0.537299 0.711363 1.274543 6.521345 -2.437506 14.760746 -14.170210 -0.342397 -64.663197 -83.922391 -117.672015 -10.679181 2.389106 -14.249361 -8.387870 -10.626400 0.705451 12.508601 0.553828 18.485386 -82.018701 79.867075 100.632770 -2.899710 -7.463904 15.698220 -15.396959 15.538819 -1.080969 12.068838 10.295912 -8.156348 
173.520401 91.963409 -518.488708 89.729097 0.571572 92.473617 175.339057 -3.626013 173.170103 -15.896289 0.870836 2.355953 75.944750 -2.318184 -2.273605 21.454553 0.003085 -0.000002 177.584126 2.446998 -176.606794 -14.661911 4.131399 6.284143 77.919420 -3.802484 2.921572 21.454562 -0.003112 -0.000019 5.513830 0.273881 0.354808 0.988720 0.530669 0.724011 0.670630 0.535921 0.720778 1.300457 6.526317 -2.449392 14.796654 -14.141798 -0.361461 -64.639654 -83.914010 -117.696385 -10.648408 2.356922 -14.285166 -8.343724 -10.587888 0.705456 12.478719 0.484648 18.420607 -81.931234 79.884636 100.719021 -2.859423 -7.483334 15.653588 -15.397410 15.530259 -1.080975 12.038729 10.261019 -8.226042 
173.515594 91.960373 -518.483887 89.726932 0.605998 92.436051 175.375134 -3.636902 173.157016 -15.914124 0.872665 2.343000 75.963656 -2.311535 -2.284234 21.454551 0.003103 -0.000000 177.610778 2.438091 -176.636519 -14.674749 4.130966 6.280416 77.929105 -3.800332 2.920220 21.454558 -0.003104 -0.000018 5.513717 0.275255 0.353541 0.990430 0.529452 0.735221 0.672334 0.534103 0.731988 1.332442 6.544463 -2.444856 14.794302 -14.139130 -0.355931 -64.636177 -83.898827 -117.701249 -10.643961 2.315896 -14.288901 -8.283873 -10.544327 0.705467 12.465559 0.557032 18.399519 -81.894316 79.891384 100.755392 -2.834003 -7.519746 15.665119 -15.356769 15.520321 -1.080968 12.031601 10.235830 -8.285068 
173.506104 91.956032 -518.477478 89.723455 0.645192 92.404004 175.411101 -3.648508 173.134121 -15.940821 0.880683 2.338768 75.987542 -2.312340 -2.299056 21.454555 0.003098 0.000001 177.642278 2.426996 -176.668007 -14.690197 4.131022 6.279877 77.935566 -3.795478 2.937875 21.454558 -0.003103 -0.000016 5.513122 0.276458 0.352592 0.995364 0.527441 0.743755 0.677283 0.532078 0.740551 1.358569 6.569895 -2.433199 14.769198 -14.150973 -0.337997 -64.655001 -83.877981 -117.684501 -10.645600 2.269214 -14.287744 -8.219170 -10.518671 0.705461 12.473883 0.631424 18.395858 -81.893251 79.893857 100.756307 -2.813172 -7.563255 15.699538 -15.289691 15.504002 -1.080979 12.041590 10.215819 -8.327537 
173.492798 91.951424 -518.470886 89.720696 0.683691 92.378752 175.444337 -3.660802 173.109574 -15.968598 0.893618 2.337908 76.011249 -2.317370 -2.316159 21.454555 0.003096 0.000002 177.672796 2.415095 -176.684918 -14.708543 4.131822 6.274552 77.945374 -3.789223 2.948144 21.454557 -0.003116 -0.000017 5.511978 0.277514 0.352045 1.002184 0.524059 0.745816 0.684093 0.530096 0.742634 1.367400 6.577120 -2.424229 14.746952 -14.153322 -0.325587 -64.735399 -83.841931 -117.607620 -10.644220 2.223973 -14.301498 -8.163947 -10.510709 0.705450 12.483671 0.639805 18.369819 -81.873423 79.901158 100.775568 -2.784790 -7.603736 15.704567 -15.206439 15.476114 -1.080972 12.059310 10.189140 -8.327046 
173.476593 91.947403 -518.465088 89.718168 0.713203 92.364252 175.467314 -3.674895 173.098796 -15.993959 0.902473 2.338938 76.031446 -2.321521 -2.333040 21.454553 0.003085 -0.000002 177.695731 2.403106 -176.681243 -14.726521 4.133369 6.263693 77.958987 -3.782978 2.943519 21.454555 -0.003109 -0.000017 5.510261 0.278397 0.351990 1.006409 0.520288 0.740362 0.688339 0.526744 0.737203 1.382586 6.568677 -2.422402 14.713817 -14.153315 -0.321943 -64.804056 -83.796442 -117.543567 -10.623521 2.181403 -14.307003 -8.136662 -10.513089 0.705459 12.484702 0.643056 18.362253 -81.819307 79.912305 100.828789 -2.746051 -7.644504 15.710333 -15.132050 15.445122 -1.080974 12.085700 10.179033 -8.297815 
173.458694 91.944130 -518.460388 89.715081 0.732976 92.359546 175.480032 -3.688997 173.091610 -16.015451 0.909113 2.342271 76.047292 -2.327875 -2.347651 21.454555 0.003098 0.000002 177.710457 2.391904 -176.672296 -14.742349 4.135139 6.255410 77.972483 -3.779136 2.936613 21.454560 -0.003117 -0.000018 5.507889 0.279120 0.352511 1.004607 0.517727 0.731906 0.686519 0.522277 0.728770 1.436636 6.573072 -2.423744 14.671491 -14.150718 -0.319132 -64.833972 -83.751575 -117.517858 -10.589781 2.139814 -14.309639 -8.169609 -10.544181 0.705448 12.484070 0.713817 18.445966 -81.788592 79.916342 100.859238 -2.706066 -7.693896 15.752882 -15.107139 15.435447 -1.080977 12.097127 10.203512 -8.362728 
